<svg xmlns="http://www.w3.org/2000/svg" id="Capa_1" data-name="Capa 1" viewBox="0 0 1060.95 398.62"><title>logo_pikotea</title><path class="cls-1" d="M859.6,431.9q-19,.53-38.05.78c-12.69.13-25.37.33-38,.36s-25.37.15-38,.09-25.36,0-38-.11l-4.92-.06.1-4.91c0-1.26.09-2.12.18-3.12s.2-1.91.31-2.86c.24-1.89.51-3.74.85-5.58s.67-3.67,1.09-5.47.79-3.62,1.27-5.4a205.89,205.89,0,0,1,6.52-21,353,353,0,0,1,17.74-39.93L733,339.8l2.62-4.77c1.79-3.15,3.53-6.37,5.35-9.45L751.85,307c7.39-12.3,14.77-24.63,22.21-36.82,3.67-6.11,7.32-12.25,10.54-18.38a55.09,55.09,0,0,0,3.93-9.07,15.2,15.2,0,0,0,.69-4,3.6,3.6,0,0,0-.3-1.24,15.86,15.86,0,0,0-.9-1.89,55.55,55.55,0,0,0-5.93-8.06c-2.25-2.65-4.65-5.23-7.11-7.78-4.91-5.11-10.08-10-15.29-14.93-10.4-9.83-21.21-19.27-31.71-29.11-5.26-4.92-10.52-9.84-15.57-15q-3.81-3.85-7.45-7.88c-1.22-1.35-2.41-2.72-3.58-4.13-.59-.7-1.17-1.41-1.73-2.15a28.21,28.21,0,0,1-1.71-2.37l-3-4.68,5.34,1.84c12.08,4.17,24.24,8.23,36.52,11.81q9.21,2.72,18.46,5.14c6.19,1.57,12.4,3,18.61,4.14l4.66.78,4.78.73,9.53,1.53c3.17.52,6.32,1.05,9.42,1.48a44.93,44.93,0,0,0,8.89.54,24.91,24.91,0,0,0,8.1-2.08,26.23,26.23,0,0,0,6.65-4.88,154.81,154.81,0,0,0,12.46-13.93c4-4.92,8-10,12.34-15q1.62-1.86,3.35-3.69c1.15-1.22,2.4-2.45,3.57-3.57,2.39-2.29,4.87-4.54,7.49-6.67a80.22,80.22,0,0,1,17.31-11,73.62,73.62,0,0,1,19.86-6,81.1,81.1,0,0,1,10.28-.92,89.9,89.9,0,0,1,10.34.29,58.25,58.25,0,0,1,37.63,18.43,75.35,75.35,0,0,1,12,17.12A98.38,98.38,0,0,1,980,154.81l5.1,18.6c3.41,12.32,6.76,24.62,10.47,36.79s7.7,24.23,12,36.12c2.17,5.93,4.43,11.81,6.88,17.57,1.27,2.85,2.43,5.78,3.82,8.55s2.65,5.58,4.15,8.51q8.7,17.35,16.32,35.19c5.11,11.88,10,23.88,14.36,36.07s8.32,24.57,11.56,37.2,5.69,25.54,6.25,38.86l.19,4.35-4.21,0-105-.69-.05-1.29c8.73-.71,17.47-1.39,26.21-1.94l26.24-1.64c8.74-.56,17.49-1,26.24-1.42s13.72-.72,22.48-1.06c0,0-4.32-20.43-7.86-32.52s-7.87-24-12.58-35.83-9.7-23.49-15-35q-4-8.66-8.23-17.22c-2.79-5.71-5.62-11.41-8.54-17.05-1.46-2.77-2.94-5.75-4.41-8.72s-2.77-6-4.15-9c-2.65-6-5.08-12.06-7.4-18.14-4.65-12.17-8.54-24.54-12.29-36.91s-7.2-24.81-10.38-37.28l-4.79-18.58a84.84,84.84,0,0,0-6.22-16.75c-5.24-10.56-13-19.69-23.11-24.81a47.68,47.68,0,0,0-16.29-4.85,78.4,78.4,0,0,0-8.88-.42,75,75,0,0,0-8.88.59,62.57,62.57,0,0,0-17,4.63,75.76,75.76,0,0,0-15.38,9.13c-2.43,1.82-4.78,3.81-7.1,5.86-1.17,1.06-2.25,2-3.34,3.12s-2.17,2.17-3.24,3.31c-4.29,4.53-8.48,9.37-12.8,14.17a159.91,159.91,0,0,1-13.86,14.11,33.06,33.06,0,0,1-9.15,5.92,32.43,32.43,0,0,1-10.57,2.17,51.6,51.6,0,0,1-10.25-1c-3.23-.6-6.37-1.27-9.51-1.93l-9.39-1.93-4.71-.89-4.79-1c-6.36-1.4-12.6-3.09-18.8-4.86s-12.36-3.63-18.48-5.6c-12.24-4-31.73-11.75-31.17-11.07,1.12,1.35,2.31,2.67,3.5,4,2.4,2.61,4.88,5.17,7.4,7.68q7.59,7.53,15.61,14.66c10.74,9.44,21.74,18.63,32.7,28,5.47,4.68,10.89,9.43,16.22,14.36,2.66,2.48,5.28,5,7.83,7.7a62.31,62.31,0,0,1,7.26,8.91,22.66,22.66,0,0,1,1.56,2.87,11.73,11.73,0,0,1,1.05,4,22.46,22.46,0,0,1-.66,6.61,63.59,63.59,0,0,1-4,10.9c-3.1,6.74-6.57,13.06-10,19.41s-6.95,12.6-10.51,18.83L761.7,312.7,751,331.32c-1.81,3.11-3.46,6.2-5.19,9.31l-2.6,4.63L740.71,350a343.43,343.43,0,0,0-17.66,38.45c-1.29,3.27-2.41,6.58-3.6,9.88s-2.18,6.65-3.09,10c-.5,1.67-.92,3.35-1.33,5s-.79,3.36-1.15,5.05-.64,3.36-.9,5c-.11.83,20,.74,32.65,1.22s25.34,1.09,38,1.68,25.33,1.28,38,1.94,25.33,1.49,38,2.36Z" transform="translate(-10.1 -99.79)"></path><ellipse class="cls-1" cx="899.04" cy="177.89" rx="12.68" ry="10.43" transform="translate(190.73 671.76) rotate(-51.57)"></ellipse><ellipse class="cls-1" cx="870.43" cy="165.74" rx="12.68" ry="10.02" transform="matrix(0.52, -0.85, 0.85, 0.52, 264.9, 722.14)"></ellipse><path class="cls-1" d="M859.62,234.78s8.36-2.17,23.6-7.08,20.5-8.2,20.5-8.2,3.34,18.74-.37,32.16c-4.1,14.83-16.72,25.47-16.72,25.47s-8.28-11.31-15.07-20.06a103.07,103.07,0,0,0-14.06-15s-6.9.56-18.64,4.28C823.32,251.27,814,254,814,254s-2.29-17.4,2.85-31.88c6-16.78,14.83-22.92,14.83-22.92s8.3,11.5,14,19.18A192.31,192.31,0,0,0,859.62,234.78Z" transform="translate(-10.1 -99.79)"></path><path class="cls-1" d="M988.34,264.89a68.44,68.44,0,0,1,1.8,20.18A74.09,74.09,0,0,1,989,295.16c-.29,1.69-.72,3.38-1.17,5.09a46.22,46.22,0,0,1-1.82,5.2,28.46,28.46,0,0,1-1.36,2.7c-.29.48-.53.92-.89,1.43a14.87,14.87,0,0,1-1,1.3,38,38,0,0,1-12.94,10,40.58,40.58,0,0,1-10,3.29,31.27,31.27,0,0,1-10.39.34A136,136,0,0,0,965,313.35a61.53,61.53,0,0,0,6.25-6.13,40.75,40.75,0,0,0,2.62-3.3,7.65,7.65,0,0,0,.46-.67c.12-.15.25-.44.39-.66.26-.5.53-1.07.78-1.69.54-1.22,1-2.58,1.52-4s1-2.87,1.43-4.35l2.83-9.06A140.13,140.13,0,0,1,988.34,264.89Z" transform="translate(-10.1 -99.79)"></path><path class="cls-1" d="M865.1,326.53a.76.76,0,0,1,.07.56,1,1,0,0,1-.27.4,2,2,0,0,1-.64.31,7.59,7.59,0,0,1-.91.23c-.57.11-1.13.19-1.7.26-1.12.16-2.23.22-3.34.3-2.22.16-4.43.18-6.63.21-4.42.07-8.81-.1-13.19-.33q-13.14-.72-26.17-2.64c-4.31-.64-8.77-1.39-13.1-2.4s-8.57-2.29-12.75-3.74c-8.35-2.91-13-3.88-21.06-7.36a85,85,0,0,0,.56,13.53,67.14,67.14,0,0,0,1.88,9c.44,1.45.93,2.88,1.49,4.23a15.13,15.13,0,0,0,1.9,3.58c3.17,4.44,8.32,7.52,13.69,9.81a69.23,69.23,0,0,0,8.39,2.9,84.48,84.48,0,0,0,8.57,1.95l4.66.73-1.78,6.37c0,.15-.28.63-.42,1l-.46,1.2c-.3.81-.56,1.64-.79,2.48a23.75,23.75,0,0,0-.81,5,21.38,21.38,0,0,0,1,7.24,9.32,9.32,0,0,0,.76,1.75,14.58,14.58,0,0,0,6.5,5.45,32.81,32.81,0,0,0,4.82,1.86c.85.26,1.71.5,2.58.7l1.3.27,1.14.2,7.42,1.28-2.31,6.55c-1.5,4.26-2.66,9.53-2.48,13.5a9.07,9.07,0,0,0,.14,1.31,7.68,7.68,0,0,0,.34,1.24,10.36,10.36,0,0,0,1.31,2.53,15.69,15.69,0,0,0,2.06,2.37,24.14,24.14,0,0,0,2.61,2.06,18.69,18.69,0,0,0,6.23,2.68l8,1.7c5.33,1.2,10.67,2.39,16,3.87l-.13,1.13c-5.5.25-11,.22-16.47.21l-8.22-.13a26.13,26.13,0,0,1-9.25-2.23,24,24,0,0,1-8-5.7,20.23,20.23,0,0,1-3.08-4.33,17.5,17.5,0,0,1-1.12-2.57,22.44,22.44,0,0,1-.68-2.68,34,34,0,0,1-.32-9.65c.13-1.53.73-2.26-.43-2.56a40.23,40.23,0,0,1-6.88-2.58,29.36,29.36,0,0,1-6.53-4.35,21.77,21.77,0,0,1-5.12-6.81,19.49,19.49,0,0,1-1.45-4.1,32.56,32.56,0,0,1-.63-3.79,31.09,31.09,0,0,1,.24-7.6,31.58,31.58,0,0,1,1.95-7.16c.45-1.14-1.36-1.93-2.89-2.54a79.12,79.12,0,0,1-9-4.19,51.39,51.39,0,0,1-8.31-5.65,29.2,29.2,0,0,1-6.73-7.89,20.78,20.78,0,0,1-2-4.9c-.4-1.63-.68-3.24-.94-4.83-.52-3.19-.87-6.34-1.21-9.49-.67-6.3-1.28-12.52-2-18.86l-.39-3.24,3.54,1c8.33,2.27,16.95,3.78,25.35,5.54,4.22.87,8.4,1.78,12.55,2.7s8.24,1.8,12.51,2.64c8.45,1.68,16.94,3.39,25.43,5.2,4.24.91,8.49,1.82,12.73,2.79l6.36,1.4,3.17.64c.53.1,1.06.19,1.56.26.26,0,.94,0,.85.12S865,326.27,865.1,326.53Z" transform="translate(-10.1 -99.79)"></path><path class="cls-1" d="M1001.76,300.11a248.08,248.08,0,0,1,1.27,36.12,264.32,264.32,0,0,1-3.51,36l-2.87,17.54c-.5,2.94-1,5.9-1.6,8.9a85.29,85.29,0,0,1-2.23,9.17,28.3,28.3,0,0,1-4.7,9.56,19.49,19.49,0,0,1-2,2.15c-.39.32-.75.66-1.16.94l-.59.43-.55.32a39.9,39.9,0,0,1-4.3,2.22,64.91,64.91,0,0,1-17.85,5.05c4.76-4,9.6-7.55,14-11.24,1.08-.93,2.15-1.84,3.11-2.78l.36-.34.27-.27c.19-.18.34-.39.51-.57a10.22,10.22,0,0,0,.88-1.24,23.13,23.13,0,0,0,2.34-6.8c1.07-5.3,1.66-11.26,2.46-17.15s1.64-11.89,2.72-17.82c2.19-11.6,4-23.21,6.11-35S998.74,311.86,1001.76,300.11Z" transform="translate(-10.1 -99.79)"></path><path class="cls-1" d="M863.18,319.37a1,1,0,0,1,.55-.24l.16,0,.34-.07.66-.15,1.33-.26,2.67-.51c1.78-.34,3.57-.62,5.35-.92,3.56-.61,7.14-1.08,10.72-1.58s7.16-.91,10.74-1.32,7.17-.83,10.76-1.14c7.19-.66,14.45-1.27,21.71-1.45,3.64-.12,7.28-.18,10.94-.18,1.83,0,3.67.05,5.51.11s3.63.15,5.66.32l3.22.27,1,3.23c.56,1.77.94,3.27,1.36,4.9s.78,3.18,1.15,4.77c.73,3.17,1.36,6.35,1.94,9.54q1.71,9.56,2.67,19.18c1.23,12.84,1.73,25.65,1.89,38.53s0,25.65-.18,38.44-.45,25.55-.89,38.41l0,.9-.76.7a30.17,30.17,0,0,1-3,2.43c-1,.71-2,1.4-3.08,2s-2.11,1.21-3.17,1.81-2.16,1.11-3.26,1.62a86.42,86.42,0,0,1-13.59,5c-2.31.71-4.66,1.18-7,1.76s-4.72.89-7.09,1.22a125,125,0,0,1-14.31,1.24,144.75,144.75,0,0,1-28.75-1.9,112.34,112.34,0,0,1-14.21-3.38c-2.35-.7-4.68-1.53-7-2.44-1.16-.46-2.31-.95-3.48-1.48-.58-.27-1.15-.53-1.75-.84s-1.12-.56-1.92-1l-3.66-2.12,1-4.41c2.65-12.19,5-24.7,7.18-37.1,1-6.22,2.1-12.44,3-18.67s1.74-12.49,2.33-18.71c.33-3.11.56-6.25.86-9.38s.48-6.28.62-9.44c.37-6.31.68-12.64.88-19s.36-12.71.55-19.08l.19-9.56.09-4.79,0-2.4,0-1.2v-.6A2.84,2.84,0,0,1,863.18,319.37Zm1.25,1.5.19,1.18.41,2.37c.28,1.58.51,3.17.75,4.75.49,3.17.92,6.35,1.31,9.53.82,6.37,1.43,12.75,2,19.16a347.92,347.92,0,0,1,1,38.66,361.87,361.87,0,0,1-3.72,38.58q-1.39,9.57-3.24,19c-1.23,6.34-4.07,13.89-3.61,14.12.93.46,1.17.56,2.15,1,2,.84,4,1.63,6.06,2.32a115.23,115.23,0,0,0,12.72,3.48A141.77,141.77,0,0,0,907,477.88a145.92,145.92,0,0,0,26.77-1.77,79.37,79.37,0,0,0,13-3.23c1-.35,2.07-.77,3.11-1.15s2-.85,3-1.34,2-1,2.91-1.51a14.63,14.63,0,0,0,1.91-1.18s2-24.23,2.21-36.94c0-6.36,0-12.72-.42-19.06s-.85-12.69-1.54-19c-.32-3.16-.8-6.29-1.2-9.43l-1.43-9.42c-1-6.26-2-12.52-3.13-18.74s-2.17-12.44-3.34-18.61c-.56-3.09-1.19-6.16-1.8-9.22-.33-1.52-.65-3-1-4.55s-.22-1.18-1.94-1.3l-5.27-.32q-5.28-.3-10.62-.42c-7.1-.14-14.22-.22-21.39-.18-3.58,0-7.18,0-10.77,0l-10.78,0-10.79-.08-5.39,0-2.71,0h-2Z" transform="translate(-10.1 -99.79)"></path><path class="cls-1" d="M788.18,259.45c-15,7.8-29.77,15.94-43.93,24.79-7.07,4.44-14,9.1-20.48,14.1s-12.67,10.41-17.44,16.47a24.19,24.19,0,0,0-1.71,2.28,19.06,19.06,0,0,0-1.47,2.25,28.26,28.26,0,0,0-2,4.77,48.17,48.17,0,0,0-1.87,11c-.54,7.73.16,15.82,1.11,23.93,2,16.27,5.57,32.61,8.64,49.45a136.5,136.5,0,0,1-11.47-23,153.44,153.44,0,0,1-7.49-24.75,97,97,0,0,1-2.17-26.45,50.7,50.7,0,0,1,2.79-13.79,32.05,32.05,0,0,1,3.3-6.7c.72-1.11,1.42-2,2.12-2.95a34.35,34.35,0,0,1,2.19-2.7c6-6.93,13-12.28,20.2-17.14a210.73,210.73,0,0,1,22.32-12.85A293.3,293.3,0,0,1,788.18,259.45Z" transform="translate(-10.1 -99.79)"></path><path class="cls-2" d="M11.65,260.1H55.84a46.64,46.64,0,0,1,24.22,7,61.55,61.55,0,0,1,6.15,4.61,49.44,49.44,0,0,1,4.84,5,53,53,0,0,1,4.14,5.91A49.74,49.74,0,0,1,102,308v4.37a54.47,54.47,0,0,1-9.92,31.31,61.42,61.42,0,0,1-5.91,7A51.33,51.33,0,0,1,78.06,357a44.95,44.95,0,0,1-24.23,6.61h-33V433l-.12.12h-9.1l-.12-.12V260.21Zm9.22,9.33v84.84H56.31A33,33,0,0,0,67.19,352Q81,346.47,88.1,332.17a46,46,0,0,0,4.61-20.44v-3.07q0-16.77-10.75-28.12a40.28,40.28,0,0,0-5.79-4.85,37.49,37.49,0,0,0-20.92-6.26Z" transform="translate(-10.1 -99.79)"></path><path class="cls-2" d="M132.05,260.1h.83a7.44,7.44,0,0,1,5.32,2.48,7.59,7.59,0,0,1,1.77,4.49v1.18a7.24,7.24,0,0,1-2.6,5.2,7.36,7.36,0,0,1-4.84,1.77,7.58,7.58,0,0,1-6.62-3.78,7.27,7.27,0,0,1-1-3.43v-.71a7.46,7.46,0,0,1,7.09-7.2Zm5.09,60.73V433l-.12.12h-9.1l-.12-.12V320.83Z" transform="translate(-10.1 -99.79)"></path><path class="cls-2" d="M173.88,260.1H183l.12.11V433l-.12.12h-9.1l-.12-.12V260.21Zm59.2,60.73h11.58l.12.12L215,360.06l-10,13.11,31.19,44.9,10.4,15H235.21L207.68,393.5l-14.3-20.44v-.12l30.72-40.41Q232.37,321.65,233.08,320.83Z" transform="translate(-10.1 -99.79)"></path><path class="cls-2" d="M308.7,319.77h1.18q11.12,0,22,6.85a54.47,54.47,0,0,1,7,5.55,42.3,42.3,0,0,1,4.61,5.08,66.8,66.8,0,0,1,5.91,9.1A65.76,65.76,0,0,1,356.67,377a64.81,64.81,0,0,1-9.1,33.67,54.9,54.9,0,0,1-7.08,9.33q-4.86,5-7.33,6.38-11.24,7.8-23.63,7.8h-.59q-13.59,0-25.64-9.21a53.68,53.68,0,0,1-9-9.22,60.84,60.84,0,0,1-4.73-7.09,65.84,65.84,0,0,1-7.8-31v-1.53a65.81,65.81,0,0,1,6.62-28.48,69.78,69.78,0,0,1,5.32-8.74,70.82,70.82,0,0,1,6.14-7l1.77-1.66a44.46,44.46,0,0,1,16.31-9A40.37,40.37,0,0,1,308.7,319.77Zm-37.57,57v.35a50.41,50.41,0,0,0,15.24,38.17l1.65,1.53q9.81,8,21.27,8,13,0,23.75-10.52a45.57,45.57,0,0,0,5.79-7.32,57.25,57.25,0,0,0-.12-60.26,42.25,42.25,0,0,0-4.49-5.79,36,36,0,0,0-6-5.44,32,32,0,0,0-18.79-6.38h-.35Q295.94,329.1,285,340a52,52,0,0,0-5.91,7.68A55.94,55.94,0,0,0,271.13,376.72Z" transform="translate(-10.1 -99.79)"></path><path class="cls-2" d="M393.18,260.1h9.1l.12.11v60.62h33.2l.12.12v9.1l-.12.11H402.4v73.26q0,8.63,4.14,14.3a12.1,12.1,0,0,0,3.42,3.19,15.08,15.08,0,0,0,8.39,2.95h.47q5.08,0,13.59-3.78a4.7,4.7,0,0,1,1.3-.59l4,8.39a56.18,56.18,0,0,1-9.22,3.55,34.65,34.65,0,0,1-9.21,1.65h-1.42a24.21,24.21,0,0,1-12.41-3.9,27.79,27.79,0,0,1-4.72-3.9,26.27,26.27,0,0,1-5.44-9A38,38,0,0,1,393.18,404V330.16H371.32l-.11-.11V321l.11-.12h21.86Z" transform="translate(-10.1 -99.79)"></path><path class="cls-2" d="M500.94,319.77h1.42q10.63,0,21.39,6.26a42,42,0,0,1,6.85,5.08,51.29,51.29,0,0,1,5.67,5.79,64.08,64.08,0,0,1,6.86,10.4,58.94,58.94,0,0,1,3.9,9.92,48.28,48.28,0,0,1,1.53,6.38q-2,.72-39.7,12.29L464.2,389.72a63.74,63.74,0,0,0,2.12,6.73,51.54,51.54,0,0,0,5.44,10.28,46.05,46.05,0,0,0,5.43,6.62q11,10.39,24.46,10.4,13.71,0,24.93-11.11a40.31,40.31,0,0,0,6.5-8.51l.48-.71h.11q7.92,4.6,7.92,4.73a70,70,0,0,1-4.84,7.21c-1.11,1.34-2.6,2.95-4.49,4.84a42.35,42.35,0,0,1-9.34,7A40.66,40.66,0,0,1,502,433.08h-.95q-12.4,0-24.1-7.92a60.93,60.93,0,0,1-6.62-5.55,51,51,0,0,1-6.26-7.56,59.55,59.55,0,0,1-7.68-15.72,63,63,0,0,1-3.07-19.14v-1.53a64.34,64.34,0,0,1,5.55-25.88,60.67,60.67,0,0,1,6-10.28,65.84,65.84,0,0,1,5.08-6,47.08,47.08,0,0,1,7.56-6.26Q489,319.77,500.94,319.77Zm-38.28,56.36v.35c0,1.74.08,3.55.24,5.44L516,365.49l21.74-6.61a49.19,49.19,0,0,0-2.72-7,63.85,63.85,0,0,0-4.6-7.45,56.07,56.07,0,0,0-5-5.55l-1.77-1.54q-10.17-8.26-22-8.27h-.23q-12.65,0-23.52,9.69a44.27,44.27,0,0,0-5.55,6.38,52.28,52.28,0,0,0-4.49,7.56A54.52,54.52,0,0,0,462.66,376.13Z" transform="translate(-10.1 -99.79)"></path><path class="cls-2" d="M609.18,320.83q19.73,0,29,14.18a36,36,0,0,1,5.31,19v52.58a85.47,85.47,0,0,0,2.72,20.44,59.09,59.09,0,0,0,2.13,6h-9.93a25.15,25.15,0,0,1-1.18-3.66,73.42,73.42,0,0,1-2.13-10.52c0-.39,0-.59-.11-.59a94,94,0,0,1-10.52,7.56,73.29,73.29,0,0,1-9.45,4.61,52.29,52.29,0,0,1-17.84,3.66h-1.78a34.28,34.28,0,0,1-18.08-5.08,35,35,0,0,1-5.19-4.13,10.82,10.82,0,0,0-1.19-1.54,31.5,31.5,0,0,1-6.85-20.2V402q0-21.25,27.3-29.06,13.93-3.78,33.2-3.78c2.68,0,5.86.08,9.57.23V354.62q0-10.74-6.26-17.72-6.51-6.73-18.79-6.74-9.93,0-23.4,4.49-5.31,2.13-15.12,6.86l-1.65.71-3.9-8.39q11.81-5.67,17-7.8a79.59,79.59,0,0,1,12.29-3.55A75.64,75.64,0,0,1,609.18,320.83ZM573.26,402.6v.23q0,11.82,8.51,17.84a23.71,23.71,0,0,0,14.06,4.26h.82q9.69,0,21-6a74.83,74.83,0,0,0,8.5-5.55,85.21,85.21,0,0,0,7.92-6.86V378.73c-3.71-.24-6.93-.36-9.69-.36q-26.24,0-40.65,7.68a27.22,27.22,0,0,0-5.08,3.55q-3,3.07-3.54,4.84Q573.26,397.4,573.26,402.6Z" transform="translate(-10.1 -99.79)"></path><path class="cls-3" d="M341.26,487.08a6.55,6.55,0,0,0-2.75-5.55q-2.76-2-10.07-3.88t-10.69-4q-4.8-3.08-4.79-8.06a9.17,9.17,0,0,1,4.45-7.87q4.45-3,11.38-3a20.82,20.82,0,0,1,8.41,1.62,13.4,13.4,0,0,1,5.75,4.52,11,11,0,0,1,2,6.46h-4a8.45,8.45,0,0,0-3.3-7q-3.3-2.62-8.88-2.63a15.2,15.2,0,0,0-8.61,2.16,6.54,6.54,0,0,0-3.21,5.65,6.18,6.18,0,0,0,2.88,5.25c1.93,1.36,5,2.55,9.24,3.58a46.89,46.89,0,0,1,9.61,3.22,13.18,13.18,0,0,1,4.93,4,9.58,9.58,0,0,1-2.8,13.47q-4.45,3-11.74,3a25.19,25.19,0,0,1-9.15-1.6,13.82,13.82,0,0,1-6.32-4.46,10.62,10.62,0,0,1-2.15-6.58h4a8.11,8.11,0,0,0,3.72,7q3.74,2.58,9.92,2.58a16,16,0,0,0,8.84-2.17A6.61,6.61,0,0,0,341.26,487.08Z" transform="translate(-10.1 -99.79)"></path><path class="cls-3" d="M388.71,478.65a22.21,22.21,0,0,1-2.25,10.23,15.9,15.9,0,0,1-6.43,6.78,19.1,19.1,0,0,1-9.65,2.38q-8.26,0-13.34-5.29T352,478.48v-4.35a22.06,22.06,0,0,1,2.28-10.21,16.2,16.2,0,0,1,6.47-6.84,18.93,18.93,0,0,1,9.61-2.39,19.29,19.29,0,0,1,9.61,2.34,16.2,16.2,0,0,1,6.43,6.64,21.73,21.73,0,0,1,2.36,9.94Zm-4-4.58q0-7.62-3.86-11.94t-10.56-4.32a13.39,13.39,0,0,0-10.47,4.34q-3.91,4.34-3.91,12.1v4.4q0,7.5,3.89,11.9t10.56,4.39q6.76,0,10.56-4.34c2.52-2.88,3.79-6.91,3.79-12.06Z" transform="translate(-10.1 -99.79)"></path><path class="cls-3" d="M424.73,477.72h-22v19.74h-4v-42.2H428v3H402.73v16.43h22Z" transform="translate(-10.1 -99.79)"></path><path class="cls-3" d="M468.71,458.28H452.55v39.18h-4V458.28H432.43v-3h36.28Z" transform="translate(-10.1 -99.79)"></path><path class="cls-3" d="M485.52,486.07l1.45,6.55,1.79-6.26L499,455.26h3.59l10.11,31.1,1.75,6.32,1.55-6.61,8.52-30.81h4.08l-12.08,42.2h-3.82l-10.69-33-1.2-4.17-1.16,4.17-10.95,33h-3.82l-12.05-42.2h4.08Z" transform="translate(-10.1 -99.79)"></path><path class="cls-3" d="M560.33,485.61H538.92l-4.86,11.85h-4.17l17.84-42.2h3.79l17.85,42.2h-4.15Zm-20.18-3h18.92l-9.46-23Z" transform="translate(-10.1 -99.79)"></path><path class="cls-3" d="M593.92,479.87h-13.7v17.59h-4v-42.2h15.32q7.54,0,11.79,3.28a10.87,10.87,0,0,1,4.24,9.14,10.65,10.65,0,0,1-2.65,7.15,13.79,13.79,0,0,1-7.13,4.29l11.79,18v.38h-4.24Zm-13.7-3h12.21a12.15,12.15,0,0,0,8.06-2.55,8.93,8.93,0,0,0-.13-13.55q-3.17-2.47-8.9-2.47H580.22Z" transform="translate(-10.1 -99.79)"></path><path class="cls-3" d="M644.44,477.23H622.39v17.21h25.35v3H618.4v-42.2h29.18v3H622.39v15.94h22.05Z" transform="translate(-10.1 -99.79)"></path></svg>